<mxfile host="app.diagrams.net" agent="Mozilla/5.0 (Windows NT 10.0; Win64; x64) AppleWebKit/537.36 (KHTML, like Gecko) Chrome/137.0.0.0 Safari/537.36" version="27.1.6">
  <diagram name="PÃ¡gina-1" id="-_Rlzu7UWmwP-rK08xqa">
    <mxGraphModel dx="872" dy="499" grid="1" gridSize="10" guides="1" tooltips="1" connect="1" arrows="1" fold="1" page="1" pageScale="1" pageWidth="850" pageHeight="1100" math="0" shadow="0">
      <root>
        <mxCell id="0" />
        <mxCell id="1" parent="0" />
        <mxCell id="wCxUe9UnNTl_cMrqoEWA-22" style="edgeStyle=orthogonalEdgeStyle;rounded=0;orthogonalLoop=1;jettySize=auto;html=1;" edge="1" parent="1" source="wCxUe9UnNTl_cMrqoEWA-1" target="wCxUe9UnNTl_cMrqoEWA-2">
          <mxGeometry relative="1" as="geometry" />
        </mxCell>
        <mxCell id="wCxUe9UnNTl_cMrqoEWA-1" value="&lt;font style=&quot;vertical-align: inherit;&quot;&gt;&lt;font style=&quot;vertical-align: inherit;&quot;&gt;inicio&lt;/font&gt;&lt;/font&gt;" style="rounded=1;whiteSpace=wrap;html=1;" vertex="1" parent="1">
          <mxGeometry x="160" y="20" width="120" height="60" as="geometry" />
        </mxCell>
        <mxCell id="wCxUe9UnNTl_cMrqoEWA-21" style="edgeStyle=orthogonalEdgeStyle;rounded=0;orthogonalLoop=1;jettySize=auto;html=1;exitX=0.5;exitY=1;exitDx=0;exitDy=0;entryX=0.5;entryY=0;entryDx=0;entryDy=0;" edge="1" parent="1" source="wCxUe9UnNTl_cMrqoEWA-2" target="wCxUe9UnNTl_cMrqoEWA-3">
          <mxGeometry relative="1" as="geometry" />
        </mxCell>
        <mxCell id="wCxUe9UnNTl_cMrqoEWA-2" value="&lt;font style=&quot;vertical-align: inherit;&quot;&gt;&lt;font style=&quot;vertical-align: inherit;&quot;&gt;h&lt;/font&gt;&lt;/font&gt;" style="shape=parallelogram;perimeter=parallelogramPerimeter;whiteSpace=wrap;html=1;fixedSize=1;" vertex="1" parent="1">
          <mxGeometry x="160" y="110" width="120" height="60" as="geometry" />
        </mxCell>
        <mxCell id="wCxUe9UnNTl_cMrqoEWA-19" style="edgeStyle=orthogonalEdgeStyle;rounded=0;orthogonalLoop=1;jettySize=auto;html=1;exitX=1;exitY=0.5;exitDx=0;exitDy=0;entryX=0.5;entryY=0;entryDx=0;entryDy=0;" edge="1" parent="1" source="wCxUe9UnNTl_cMrqoEWA-3" target="wCxUe9UnNTl_cMrqoEWA-4">
          <mxGeometry relative="1" as="geometry" />
        </mxCell>
        <mxCell id="wCxUe9UnNTl_cMrqoEWA-20" style="edgeStyle=orthogonalEdgeStyle;rounded=0;orthogonalLoop=1;jettySize=auto;html=1;exitX=0;exitY=0.5;exitDx=0;exitDy=0;entryX=0.25;entryY=0;entryDx=0;entryDy=0;" edge="1" parent="1" source="wCxUe9UnNTl_cMrqoEWA-3" target="wCxUe9UnNTl_cMrqoEWA-6">
          <mxGeometry relative="1" as="geometry" />
        </mxCell>
        <mxCell id="wCxUe9UnNTl_cMrqoEWA-3" value="&lt;font style=&quot;vertical-align: inherit;&quot;&gt;&lt;font style=&quot;vertical-align: inherit;&quot;&gt;h ==0&lt;/font&gt;&lt;/font&gt;" style="rhombus;whiteSpace=wrap;html=1;" vertex="1" parent="1">
          <mxGeometry x="170" y="190" width="110" height="110" as="geometry" />
        </mxCell>
        <mxCell id="wCxUe9UnNTl_cMrqoEWA-15" style="edgeStyle=orthogonalEdgeStyle;rounded=0;orthogonalLoop=1;jettySize=auto;html=1;exitX=1;exitY=0.5;exitDx=0;exitDy=0;" edge="1" parent="1" source="wCxUe9UnNTl_cMrqoEWA-4" target="wCxUe9UnNTl_cMrqoEWA-5">
          <mxGeometry relative="1" as="geometry" />
        </mxCell>
        <mxCell id="wCxUe9UnNTl_cMrqoEWA-4" value="1&amp;lt;=h&amp;lt;12" style="rhombus;whiteSpace=wrap;html=1;" vertex="1" parent="1">
          <mxGeometry x="280" y="290" width="110" height="100" as="geometry" />
        </mxCell>
        <mxCell id="wCxUe9UnNTl_cMrqoEWA-16" style="edgeStyle=orthogonalEdgeStyle;rounded=0;orthogonalLoop=1;jettySize=auto;html=1;exitX=1;exitY=0.5;exitDx=0;exitDy=0;entryX=0.5;entryY=0;entryDx=0;entryDy=0;" edge="1" parent="1" source="wCxUe9UnNTl_cMrqoEWA-5">
          <mxGeometry relative="1" as="geometry">
            <mxPoint x="560" y="480" as="targetPoint" />
          </mxGeometry>
        </mxCell>
        <mxCell id="wCxUe9UnNTl_cMrqoEWA-5" value="h=12" style="rhombus;whiteSpace=wrap;html=1;" vertex="1" parent="1">
          <mxGeometry x="370" y="400" width="110" height="100" as="geometry" />
        </mxCell>
        <mxCell id="wCxUe9UnNTl_cMrqoEWA-14" style="edgeStyle=orthogonalEdgeStyle;rounded=0;orthogonalLoop=1;jettySize=auto;html=1;exitX=0;exitY=0.75;exitDx=0;exitDy=0;entryX=0;entryY=0.5;entryDx=0;entryDy=0;" edge="1" parent="1" source="wCxUe9UnNTl_cMrqoEWA-6" target="wCxUe9UnNTl_cMrqoEWA-10">
          <mxGeometry relative="1" as="geometry" />
        </mxCell>
        <mxCell id="wCxUe9UnNTl_cMrqoEWA-6" value="&lt;font style=&quot;vertical-align: inherit;&quot;&gt;&lt;font style=&quot;vertical-align: inherit;&quot;&gt;h1 =12&lt;/font&gt;&lt;/font&gt;&lt;div&gt;&lt;font style=&quot;vertical-align: inherit;&quot;&gt;&lt;font style=&quot;vertical-align: inherit;&quot;&gt;pe&quot;am&quot;&lt;/font&gt;&lt;/font&gt;&lt;/div&gt;" style="shape=document;whiteSpace=wrap;html=1;boundedLbl=1;size=0;" vertex="1" parent="1">
          <mxGeometry x="40" y="280" width="120" height="60" as="geometry" />
        </mxCell>
        <mxCell id="wCxUe9UnNTl_cMrqoEWA-13" style="edgeStyle=orthogonalEdgeStyle;rounded=0;orthogonalLoop=1;jettySize=auto;html=1;entryX=0;entryY=0.25;entryDx=0;entryDy=0;" edge="1" parent="1" source="wCxUe9UnNTl_cMrqoEWA-7" target="wCxUe9UnNTl_cMrqoEWA-10">
          <mxGeometry relative="1" as="geometry">
            <Array as="points">
              <mxPoint x="220" y="635" />
            </Array>
          </mxGeometry>
        </mxCell>
        <mxCell id="wCxUe9UnNTl_cMrqoEWA-7" value="h1=h&lt;div&gt;pe=&quot;am&quot;&lt;/div&gt;" style="shape=document;whiteSpace=wrap;html=1;boundedLbl=1;size=0;" vertex="1" parent="1">
          <mxGeometry x="130" y="400" width="120" height="80" as="geometry" />
        </mxCell>
        <mxCell id="wCxUe9UnNTl_cMrqoEWA-12" style="edgeStyle=orthogonalEdgeStyle;rounded=0;orthogonalLoop=1;jettySize=auto;html=1;entryX=1;entryY=0.5;entryDx=0;entryDy=0;" edge="1" parent="1" target="wCxUe9UnNTl_cMrqoEWA-10">
          <mxGeometry relative="1" as="geometry">
            <mxPoint x="500" y="520" as="sourcePoint" />
          </mxGeometry>
        </mxCell>
        <mxCell id="wCxUe9UnNTl_cMrqoEWA-11" style="edgeStyle=orthogonalEdgeStyle;rounded=0;orthogonalLoop=1;jettySize=auto;html=1;entryX=0.5;entryY=0;entryDx=0;entryDy=0;" edge="1" parent="1" source="wCxUe9UnNTl_cMrqoEWA-9" target="wCxUe9UnNTl_cMrqoEWA-10">
          <mxGeometry relative="1" as="geometry" />
        </mxCell>
        <mxCell id="wCxUe9UnNTl_cMrqoEWA-9" value="h1=12&lt;div&gt;pe=&quot;pm&quot;&lt;/div&gt;" style="shape=document;whiteSpace=wrap;html=1;boundedLbl=1;size=0;" vertex="1" parent="1">
          <mxGeometry x="250" y="490" width="120" height="80" as="geometry" />
        </mxCell>
        <mxCell id="wCxUe9UnNTl_cMrqoEWA-10" value="&lt;font style=&quot;vertical-align: inherit;&quot;&gt;&lt;font style=&quot;vertical-align: inherit;&quot;&gt;Fin&lt;/font&gt;&lt;/font&gt;" style="rounded=1;whiteSpace=wrap;html=1;" vertex="1" parent="1">
          <mxGeometry x="300" y="700" width="120" height="60" as="geometry" />
        </mxCell>
        <mxCell id="wCxUe9UnNTl_cMrqoEWA-17" style="edgeStyle=orthogonalEdgeStyle;rounded=0;orthogonalLoop=1;jettySize=auto;html=1;exitX=0;exitY=0.5;exitDx=0;exitDy=0;entryX=0.317;entryY=-0.012;entryDx=0;entryDy=0;entryPerimeter=0;" edge="1" parent="1" source="wCxUe9UnNTl_cMrqoEWA-5" target="wCxUe9UnNTl_cMrqoEWA-9">
          <mxGeometry relative="1" as="geometry" />
        </mxCell>
        <mxCell id="wCxUe9UnNTl_cMrqoEWA-18" style="edgeStyle=orthogonalEdgeStyle;rounded=0;orthogonalLoop=1;jettySize=auto;html=1;exitX=0;exitY=0.5;exitDx=0;exitDy=0;entryX=0.417;entryY=0.025;entryDx=0;entryDy=0;entryPerimeter=0;" edge="1" parent="1" source="wCxUe9UnNTl_cMrqoEWA-4" target="wCxUe9UnNTl_cMrqoEWA-7">
          <mxGeometry relative="1" as="geometry" />
        </mxCell>
        <mxCell id="wCxUe9UnNTl_cMrqoEWA-23" value="" style="rhombus;whiteSpace=wrap;html=1;" vertex="1" parent="1">
          <mxGeometry x="520" y="490" width="80" height="80" as="geometry" />
        </mxCell>
      </root>
    </mxGraphModel>
  </diagram>
</mxfile>
